<?xml version="1.0" encoding="UTF-8"?>
<svg id="Layer_2" data-name="Layer 2" xmlns="http://www.w3.org/2000/svg" viewBox="0 0 562.43 199.91">
  <defs>
    <style>
      .cls-1 {
        fill: #fff;
      }
    </style>
  </defs>
  <g id="Layer_1-2" data-name="Layer 1">
    <g>
      <g id="FUTURE_CONNECT_LOGO" data-name="FUTURE CONNECT LOGO">
        <g>
          <path class="cls-1" d="m321.25,127.42l-4.39,3.37c-2.42-3.16-5.34-5.55-8.73-7.18-3.4-1.63-7.13-2.44-11.19-2.44-4.45,0-8.56,1.07-12.35,3.2-3.79,2.13-6.72,5-8.81,8.6-2.08,3.6-3.13,7.65-3.13,12.14,0,6.79,2.33,12.46,6.99,17.01,4.66,4.55,10.54,6.82,17.63,6.82,7.81,0,14.33-3.06,19.59-9.17l4.39,3.33c-2.78,3.54-6.24,6.27-10.4,8.2-4.16,1.93-8.8,2.9-13.92,2.9-9.75,0-17.44-3.25-23.07-9.74-4.72-5.48-7.09-12.1-7.09-19.85,0-8.16,2.86-15.02,8.58-20.59,5.72-5.57,12.89-8.35,21.5-8.35,5.2,0,9.9,1.03,14.09,3.09,4.19,2.06,7.63,4.94,10.3,8.66Z"/>
          <path class="cls-1" d="m345.48,130.53c6.35,0,11.61,2.3,15.79,6.9,3.79,4.19,5.69,9.16,5.69,14.89s-2.01,10.79-6.02,15.1c-4.01,4.31-9.17,6.46-15.47,6.46s-11.49-2.15-15.5-6.46c-4.01-4.31-6.02-9.34-6.02-15.1s1.9-10.66,5.69-14.85c4.17-4.62,9.45-6.93,15.83-6.93Zm-.02,5.19c-4.41,0-8.2,1.63-11.37,4.89-3.17,3.26-4.75,7.2-4.75,11.82,0,2.98.72,5.76,2.17,8.33,1.44,2.58,3.4,4.56,5.86,5.97,2.46,1.4,5.16,2.1,8.1,2.1s5.64-.7,8.1-2.1c2.46-1.4,4.41-3.39,5.85-5.97,1.44-2.58,2.17-5.35,2.17-8.33,0-4.62-1.59-8.56-4.77-11.82-3.18-3.26-6.96-4.89-11.35-4.89Z"/>
          <path class="cls-1" d="m371.18,131.59h5.3v7.39c2.12-2.83,4.47-4.94,7.05-6.34,2.58-1.4,5.38-2.1,8.41-2.1s5.82.78,8.2,2.35c2.39,1.57,4.15,3.68,5.28,6.33,1.14,2.65,1.71,6.78,1.71,12.39v21.21h-5.3v-19.66c0-4.75-.2-7.92-.59-9.51-.61-2.73-1.79-4.78-3.54-6.16-1.74-1.38-4.02-2.06-6.82-2.06-3.21,0-6.08,1.06-8.62,3.18-2.54,2.12-4.21,4.75-5.02,7.88-.51,2.05-.76,5.78-.76,11.21v15.12h-5.3v-41.22Z"/>
          <path class="cls-1" d="m412.92,131.59h5.3v7.39c2.12-2.83,4.47-4.94,7.05-6.34,2.58-1.4,5.38-2.1,8.41-2.1s5.82.78,8.2,2.35c2.39,1.57,4.15,3.68,5.28,6.33,1.14,2.65,1.71,6.78,1.71,12.39v21.21h-5.3v-19.66c0-4.75-.2-7.92-.59-9.51-.61-2.73-1.79-4.78-3.54-6.16-1.74-1.38-4.02-2.06-6.82-2.06-3.21,0-6.08,1.06-8.62,3.18-2.54,2.12-4.21,4.75-5.02,7.88-.51,2.05-.76,5.78-.76,11.21v15.12h-5.3v-41.22Z"/>
          <path class="cls-1" d="m489.35,159.13l4.47,2.35c-1.47,2.88-3.16,5.2-5.08,6.97-1.92,1.77-4.08,3.11-6.48,4.03-2.4.92-5.12,1.38-8.15,1.38-6.72,0-11.98-2.2-15.77-6.61-3.79-4.41-5.69-9.39-5.69-14.95,0-5.23,1.61-9.89,4.82-13.98,4.07-5.2,9.52-7.8,16.34-7.8s12.64,2.67,16.84,7.99c2.98,3.76,4.5,8.46,4.55,14.09h-37.09c.1,4.79,1.63,8.71,4.59,11.77,2.96,3.06,6.61,4.59,10.96,4.59,2.1,0,4.14-.36,6.13-1.09s3.67-1.7,5.06-2.91c1.39-1.21,2.9-3.16,4.51-5.85Zm0-11.1c-.71-2.83-1.74-5.09-3.09-6.78-1.35-1.69-3.14-3.06-5.37-4.09-2.23-1.04-4.56-1.55-7.02-1.55-4.05,0-7.52,1.3-10.43,3.9-2.12,1.89-3.73,4.74-4.82,8.52h30.72Z"/>
          <path class="cls-1" d="m539.49,140.15l-4.21,2.61c-3.63-4.82-8.59-7.24-14.87-7.24-5.02,0-9.19,1.62-12.51,4.84-3.32,3.23-4.98,7.15-4.98,11.77,0,3,.76,5.83,2.29,8.48,1.53,2.65,3.62,4.7,6.28,6.17,2.66,1.46,5.64,2.19,8.95,2.19,6.05,0,11-2.41,14.83-7.24l4.21,2.76c-1.97,2.97-4.62,5.27-7.94,6.9-3.32,1.63-7.1,2.45-11.35,2.45-6.52,0-11.92-2.07-16.21-6.21-4.29-4.14-6.44-9.18-6.44-15.12,0-3.99,1-7.7,3.01-11.12,2.01-3.42,4.77-6.09,8.28-8.01,3.51-1.92,7.44-2.88,11.78-2.88,2.73,0,5.36.42,7.9,1.25,2.54.83,4.69,1.92,6.46,3.26,1.77,1.34,3.27,3.04,4.51,5.12Z"/>
          <path class="cls-1" d="m548.72,116.29h5.3v15.31h8.41v4.58h-8.41v36.63h-5.3v-36.63h-7.24v-4.58h7.24v-15.31Z"/>
        </g>
        <g>
          <path class="cls-1" d="m305.25,39.67v-13.1h-35.03v62.69c2.26-2.11,5.29-3.4,8.63-3.4,1.66,0,3.26.32,4.71.9v-21.37h21.69v-12.91h-21.69v-12.82h21.69Z"/>
          <path class="cls-1" d="m315.74,44.97h13.25v25.15c0,4.9.34,8.3,1.01,10.2.67,1.9,1.76,3.38,3.25,4.44,1.49,1.06,3.33,1.58,5.51,1.58s4.03-.52,5.56-1.56c1.52-1.04,2.65-2.57,3.39-4.58.55-1.5.82-4.72.82-9.65v-25.58h13.1v22.13c0,9.12-.72,15.36-2.16,18.72-1.76,4.1-4.35,7.24-7.78,9.43-3.42,2.19-7.78,3.29-13.06,3.29-5.73,0-10.36-1.28-13.9-3.84-3.54-2.56-6.02-6.13-7.46-10.7-1.02-3.17-1.54-8.93-1.54-17.28v-21.74Z"/>
          <path class="cls-1" d="m389.45,44.95v-19.25h-13.1v19.25h-6.73v11.28h6.73v34.74h13.1v-34.74h7.77v-11.28h-7.77Z"/>
          <path class="cls-1" d="m404.2,44.97h13.25v25.15c0,4.9.34,8.3,1.01,10.2.67,1.9,1.76,3.38,3.25,4.44,1.49,1.06,3.33,1.58,5.51,1.58s4.03-.52,5.56-1.56c1.52-1.04,2.65-2.57,3.39-4.58.55-1.5.82-4.72.82-9.65v-25.58h13.1v22.13c0,9.12-.72,15.36-2.16,18.72-1.76,4.1-4.35,7.24-7.78,9.43-3.42,2.19-7.78,3.29-13.06,3.29-5.73,0-10.36-1.28-13.9-3.84-3.54-2.56-6.02-6.13-7.46-10.7-1.02-3.17-1.54-8.93-1.54-17.28v-21.74Z"/>
          <path class="cls-1" d="m482.85,43.6c-2.4,0-4.61.67-6.62,2.01-2.02,1.34-3.63,3.31-4.85,5.9v-6.57h-11.23v46.01h13v-14.91l-.04-2.55c0-7.29.7-12.19,2.08-14.69,1.4-2.5,3.1-3.75,5.12-3.75.99,0,2.25.38,3.79,1.15l4.08-11.28c-1.85-.89-3.63-1.34-5.33-1.34Z"/>
          <path class="cls-1" d="m547,75.55h-42.09c.61,3.71,2.23,6.66,4.87,8.86,2.64,2.19,6.01,3.29,10.1,3.29,4.9,0,9.1-1.71,12.62-5.14l11.04,5.18c-2.75,3.9-6.05,6.79-9.89,8.66-3.84,1.87-8.4,2.81-13.68,2.81-8.19,0-14.86-2.58-20.01-7.75-5.15-5.17-7.73-11.64-7.73-19.42s2.57-14.58,7.7-19.85c5.14-5.26,11.58-7.9,19.32-7.9,8.22,0,14.91,2.63,20.06,7.9,5.15,5.26,7.73,12.22,7.73,20.86l-.05,2.5Zm-13.1-10.32c-.87-2.91-2.57-5.28-5.12-7.1-2.55-1.82-5.5-2.74-8.87-2.74-3.65,0-6.86,1.02-9.62,3.07-1.73,1.28-3.33,3.54-4.81,6.77h28.42Z"/>
          <path class="cls-1" d="m390.38,104.47c0,4.23-3.43,7.66-7.66,7.66s-7.62-3.39-7.66-7.58c-27.78.21-55.56.41-83.34.61-1.34,5.55-6.34,9.67-12.3,9.67-6.99,0-12.66-5.66-12.66-12.66,0-3.65,1.55-6.95,4.02-9.26,2.26-2.11,5.29-3.4,8.63-3.4,1.66,0,3.26.32,4.71.9,3.77,1.52,6.65,4.81,7.6,8.84,27.81,1.23,55.65,2.48,83.46,3.71.71-3.51,3.8-6.15,7.51-6.15,4.23,0,7.66,3.43,7.66,7.66Z"/>
        </g>
      </g>
      <g>
        <path class="cls-1" d="m155.11,1.72c-1.68.53-3.36,1.1-5.02,1.72-8.24,2.18-16.18,5.43-23.85,9.72-12.63,7.09-22.9,16.01-30.81,26.78h-56.5v37.4h40.42c-1.21,6.42-1.81,13.15-1.81,20.16,0,6.06.41,11.9,1.24,17.49h-39.85v75.49c-3.54-.93-8.56-1.77-14.49-1.22-12.51,1.14-21.06,7.7-24.45,10.64V1.72h155.11Z"/>
        <path class="cls-1" d="m215.94,155.82c4.38,10.69,8.76,21.37,13.13,32.05-10.15,3.9-24.54,7.83-41.91,7.79-9.13-.02-30.24-.4-51.79-12.74-6.98-3.99-13.41-8.92-19.32-14.81-14.55-14.49-23.37-32.18-26.44-53.11-.83-5.6-1.24-11.44-1.24-17.49,0-7.01.6-13.74,1.81-20.16,1.96-10.58,5.56-20.37,10.8-29.35,1.62-2.79,3.38-5.48,5.28-8.06,7.9-10.77,18.17-19.69,30.81-26.78,7.67-4.29,15.61-7.54,23.85-9.72,8.6-2.3,17.52-3.45,26.75-3.45,3.5,0,10.05.03,18.28,1.58,6.94,1.31,17.67,4.19,29.63,11.25-8.79,8.33-17.59,16.67-26.38,25-1.46-.47-3.42-1.08-5.79-1.64-2.21-.52-8.52-1.88-16.3-1.88-17.8,0-32.79,6.09-44.99,18.26-12.18,12.17-18.28,27.16-18.28,45,0,12.42,2.7,23.45,8.1,33.09,5.4,9.64,13.04,17.2,22.9,22.69,2.47,1.37,15.04,8.2,32.89,8.24,12.27.03,22.07-3.15,28.22-5.77Z"/>
      </g>
    </g>
  </g>
</svg>