<?xml version="1.0" encoding="UTF-8"?>
<svg id="Layer_2" data-name="Layer 2" xmlns="http://www.w3.org/2000/svg" viewBox="0 0 638.73 133.28">
  <defs>
    <style>
      .cls-1 {
        fill: #fff;
      }
    </style>
  </defs>
  <g id="Layer_1-2" data-name="Layer 1">
    <g id="FUTURE_CONNECT_LOGO" data-name="FUTURE CONNECT LOGO">
      <g id="FUTURE_CONNECT_LOGO-2" data-name="FUTURE CONNECT LOGO">
        <g>
          <path class="cls-1" d="m203.47,43.52v-10.42h-27.87v49.86c1.8-1.68,4.21-2.7,6.87-2.7,1.32,0,2.59.26,3.75.72v-17h17.25v-10.27h-17.25v-10.19h17.25Z"/>
          <path class="cls-1" d="m211.81,47.74h10.54v20.01c0,3.89.27,6.6.8,8.11.54,1.51,1.4,2.69,2.58,3.53,1.19.84,2.65,1.26,4.38,1.26s3.21-.41,4.42-1.24c1.21-.83,2.11-2.04,2.7-3.65.43-1.2.65-3.75.65-7.67v-20.35h10.42v17.6c0,7.25-.57,12.22-1.72,14.89-1.4,3.26-3.46,5.76-6.18,7.5-2.72,1.74-6.19,2.62-10.39,2.62-4.56,0-8.24-1.02-11.05-3.05-2.81-2.04-4.79-4.87-5.94-8.51-.81-2.52-1.22-7.1-1.22-13.74v-17.3Z"/>
          <path class="cls-1" d="m270.45,47.72v-15.31h-10.42v15.31h-5.35v8.97h5.35v27.63h10.42v-27.63h6.18v-8.97h-6.18Z"/>
          <path class="cls-1" d="m282.18,47.74h10.54v20.01c0,3.89.27,6.6.8,8.11.54,1.51,1.4,2.69,2.58,3.53,1.19.84,2.65,1.26,4.38,1.26s3.21-.41,4.42-1.24c1.21-.83,2.11-2.04,2.7-3.65.43-1.2.65-3.75.65-7.67v-20.35h10.42v17.6c0,7.25-.57,12.22-1.72,14.89-1.4,3.26-3.46,5.76-6.18,7.5-2.72,1.74-6.19,2.62-10.39,2.62-4.56,0-8.24-1.02-11.05-3.05-2.81-2.04-4.79-4.87-5.94-8.51-.81-2.52-1.22-7.1-1.22-13.74v-17.3Z"/>
          <path class="cls-1" d="m344.74,46.65c-1.91,0-3.66.53-5.26,1.6-1.61,1.07-2.89,2.63-3.86,4.7v-5.23h-8.94v36.6h10.34v-11.86l-.04-2.03c0-5.8.55-9.7,1.66-11.68,1.11-1.98,2.47-2.98,4.07-2.98.79,0,1.79.31,3.02.92l3.24-8.97c-1.47-.71-2.89-1.07-4.24-1.07Z"/>
          <path class="cls-1" d="m395.77,72.06h-33.48c.48,2.95,1.78,5.3,3.88,7.04,2.1,1.74,4.78,2.62,8.04,2.62,3.89,0,7.24-1.36,10.04-4.09l8.78,4.12c-2.19,3.11-4.81,5.4-7.87,6.89-3.05,1.49-6.68,2.23-10.88,2.23-6.52,0-11.82-2.06-15.92-6.17-4.1-4.11-6.15-9.26-6.15-15.44s2.04-11.6,6.13-15.79c4.09-4.19,9.21-6.28,15.37-6.28,6.54,0,11.86,2.09,15.96,6.28,4.1,4.19,6.15,9.72,6.15,16.59l-.04,1.99Zm-10.42-8.21c-.69-2.32-2.05-4.2-4.07-5.65-2.03-1.45-4.38-2.18-7.06-2.18-2.91,0-5.46.81-7.65,2.44-1.38,1.02-2.65,2.81-3.82,5.38h22.6Z"/>
          <path class="cls-1" d="m271.19,95.06c0,3.36-2.73,6.09-6.1,6.09s-6.06-2.7-6.09-6.03c-22.1.17-44.19.33-66.29.48-1.07,4.42-5.04,7.69-9.78,7.69-5.56,0-10.07-4.5-10.07-10.07,0-2.9,1.23-5.53,3.2-7.36,1.8-1.68,4.21-2.7,6.87-2.7,1.32,0,2.59.26,3.75.72,3,1.21,5.29,3.83,6.05,7.03,22.13.98,44.26,1.97,66.39,2.95.56-2.79,3.02-4.89,5.98-4.89,3.36,0,6.1,2.73,6.1,6.1Z"/>
        </g>
        <g>
          <path class="cls-1" d="m447.21,49.01l-3.49,2.68c-1.93-2.51-4.24-4.41-6.93-5.7-2.7-1.29-5.66-1.94-8.89-1.94-3.53,0-6.8.85-9.81,2.54-3.01,1.69-5.34,3.97-6.99,6.83-1.65,2.86-2.48,6.07-2.48,9.64,0,5.39,1.85,9.9,5.55,13.51,3.7,3.61,8.37,5.41,14,5.41,6.2,0,11.38-2.43,15.55-7.28l3.49,2.65c-2.21,2.81-4.96,4.98-8.26,6.51-3.3,1.53-6.98,2.3-11.06,2.3-7.74,0-13.85-2.58-18.32-7.73-3.75-4.35-5.63-9.61-5.63-15.76,0-6.48,2.27-11.93,6.81-16.35s10.23-6.63,17.07-6.63c4.13,0,7.86.82,11.19,2.45,3.33,1.64,6.06,3.93,8.18,6.87Z"/>
          <path class="cls-1" d="m466.45,51.48c5.04,0,9.22,1.83,12.54,5.48,3.01,3.33,4.52,7.27,4.52,11.82s-1.59,8.57-4.78,11.99c-3.18,3.42-7.28,5.13-12.28,5.13s-9.13-1.71-12.31-5.13c-3.18-3.42-4.78-7.42-4.78-11.99s1.51-8.46,4.52-11.79c3.32-3.67,7.5-5.51,12.57-5.51Zm-.01,4.12c-3.5,0-6.51,1.29-9.03,3.88-2.52,2.59-3.77,5.72-3.77,9.39,0,2.37.57,4.57,1.72,6.62,1.15,2.05,2.7,3.63,4.65,4.74,1.95,1.11,4.1,1.67,6.43,1.67s4.48-.56,6.43-1.67c1.95-1.11,3.5-2.69,4.65-4.74,1.15-2.05,1.72-4.25,1.72-6.62,0-3.67-1.26-6.8-3.79-9.39-2.53-2.59-5.53-3.88-9.01-3.88Z"/>
          <path class="cls-1" d="m486.86,52.32h4.21v5.87c1.68-2.25,3.55-3.93,5.6-5.04,2.04-1.11,4.27-1.67,6.68-1.67s4.62.62,6.51,1.87c1.9,1.24,3.29,2.92,4.2,5.02.9,2.11,1.35,5.38,1.35,9.84v16.85h-4.21v-15.61c0-3.77-.16-6.29-.47-7.55-.49-2.17-1.42-3.8-2.81-4.89-1.38-1.09-3.19-1.64-5.42-1.64-2.55,0-4.83.84-6.85,2.53-2.02,1.68-3.35,3.77-3.99,6.26-.4,1.62-.6,4.59-.6,8.91v12h-4.21v-32.73Z"/>
          <path class="cls-1" d="m520,52.32h4.21v5.87c1.68-2.25,3.55-3.93,5.6-5.04,2.04-1.11,4.27-1.67,6.68-1.67s4.62.62,6.51,1.87c1.9,1.24,3.29,2.92,4.2,5.02.9,2.11,1.35,5.38,1.35,9.84v16.85h-4.21v-15.61c0-3.77-.16-6.29-.47-7.55-.49-2.17-1.42-3.8-2.81-4.89-1.38-1.09-3.19-1.64-5.42-1.64-2.55,0-4.83.84-6.85,2.53-2.02,1.68-3.35,3.77-3.99,6.26-.4,1.62-.6,4.59-.6,8.91v12h-4.21v-32.73Z"/>
          <path class="cls-1" d="m580.69,74.19l3.55,1.87c-1.16,2.29-2.51,4.13-4.03,5.53-1.53,1.4-3.24,2.47-5.15,3.2-1.91.73-4.07,1.1-6.47,1.1-5.34,0-9.52-1.75-12.53-5.25-3.01-3.5-4.52-7.46-4.52-11.87,0-4.15,1.27-7.85,3.82-11.1,3.23-4.13,7.56-6.2,12.98-6.2s10.04,2.12,13.37,6.35c2.37,2.99,3.57,6.72,3.61,11.19h-29.45c.08,3.8,1.29,6.92,3.64,9.35,2.35,2.43,5.25,3.65,8.7,3.65,1.67,0,3.29-.29,4.86-.87,1.58-.58,2.92-1.35,4.02-2.31,1.1-.96,2.3-2.51,3.58-4.65Zm0-8.81c-.56-2.25-1.38-4.04-2.46-5.38-1.07-1.34-2.49-2.43-4.26-3.25-1.77-.82-3.62-1.23-5.57-1.23-3.21,0-5.97,1.03-8.28,3.1-1.69,1.5-2.96,3.76-3.83,6.77h24.4Z"/>
          <path class="cls-1" d="m620.51,59.12l-3.34,2.08c-2.88-3.83-6.82-5.75-11.81-5.75-3.99,0-7.3,1.28-9.93,3.85-2.63,2.56-3.95,5.68-3.95,9.35,0,2.38.61,4.63,1.82,6.73,1.21,2.1,2.87,3.74,4.99,4.9s4.48,1.74,7.11,1.74c4.81,0,8.73-1.92,11.78-5.75l3.34,2.2c-1.56,2.36-3.67,4.18-6.3,5.48-2.64,1.3-5.64,1.95-9.01,1.95-5.17,0-9.47-1.64-12.88-4.93-3.41-3.29-5.11-7.29-5.11-12,0-3.17.8-6.11,2.39-8.83,1.59-2.72,3.79-4.84,6.57-6.36,2.79-1.52,5.91-2.29,9.36-2.29,2.17,0,4.26.33,6.27.99,2.02.66,3.72,1.52,5.13,2.59,1.4,1.06,2.6,2.42,3.58,4.06Z"/>
          <path class="cls-1" d="m627.84,40.17h4.21v12.15h6.68v3.64h-6.68v29.09h-4.21v-29.09h-5.75v-3.64h5.75v-12.15Z"/>
        </g>
      </g>
      <g>
        <path class="cls-1" d="m103.41,1.15c-1.12.35-2.24.73-3.34,1.15-5.5,1.46-10.79,3.62-15.9,6.48-8.42,4.73-15.27,10.68-20.54,17.85H25.96v24.94h26.95c-.8,4.28-1.21,8.77-1.21,13.44,0,4.04.27,7.93.83,11.66h-26.57v50.33c-2.36-.62-5.71-1.18-9.66-.82-8.34.76-14.04,5.13-16.3,7.09V1.15h103.41Z"/>
        <path class="cls-1" d="m143.97,103.89c2.92,7.13,5.84,14.25,8.75,21.37-6.77,2.6-16.36,5.22-27.94,5.2-6.09-.01-20.16-.26-34.53-8.5-4.65-2.66-8.94-5.95-12.88-9.87-9.7-9.66-15.58-21.45-17.63-35.41-.56-3.73-.83-7.62-.83-11.66,0-4.68.4-9.16,1.21-13.44,1.31-7.05,3.71-13.58,7.2-19.57,1.08-1.86,2.25-3.65,3.52-5.37,5.27-7.18,12.12-13.13,20.54-17.85,5.11-2.86,10.4-5.03,15.9-6.48,5.74-1.54,11.68-2.3,17.83-2.3,2.33,0,6.7.02,12.19,1.05,4.62.87,11.78,2.8,19.76,7.5-5.86,5.55-11.73,11.11-17.59,16.67-.97-.31-2.28-.72-3.86-1.09-1.47-.34-5.68-1.25-10.87-1.25-11.87,0-21.86,4.06-29.99,12.18-8.12,8.11-12.19,18.11-12.19,30,0,8.28,1.8,15.64,5.4,22.06,3.6,6.42,8.69,11.47,15.27,15.12,1.65.91,10.02,5.47,21.93,5.5,8.18.02,14.71-2.1,18.81-3.85Z"/>
      </g>
    </g>
  </g>
</svg>