<?xml version="1.0" encoding="UTF-8"?>
<svg id="Layer_2" data-name="Layer 2" xmlns="http://www.w3.org/2000/svg" viewBox="0 0 792.14 165.29">
  <defs>
    <style>
      .cls-1 {
        fill: #000000;
      }
    </style>
  </defs>
  <g id="Layer_1-2" data-name="Layer 1">
    <g id="FUTURE_CONNECT_LOGO" data-name="FUTURE CONNECT LOGO">
      <g id="FUTURE_CONNECT_LOGO-2" data-name="FUTURE CONNECT LOGO">
        <g>
          <path class="cls-1" d="m252.34,53.97v-12.93h-34.56v61.84c2.23-2.08,5.22-3.35,8.51-3.35,1.64,0,3.21.32,4.65.89v-21.08h21.4v-12.73h-21.4v-12.64h21.4Z"/>
          <path class="cls-1" d="m262.69,59.2h13.07v24.81c0,4.83.33,8.18,1,10.06.66,1.88,1.73,3.34,3.2,4.38,1.47,1.04,3.28,1.56,5.43,1.56s3.98-.51,5.48-1.54c1.5-1.03,2.62-2.53,3.35-4.52.54-1.48.81-4.66.81-9.52v-25.24h12.93v21.83c0,9-.71,15.15-2.13,18.47-1.74,4.04-4.29,7.14-7.67,9.3-3.38,2.16-7.67,3.24-12.88,3.24-5.65,0-10.22-1.26-13.71-3.79-3.49-2.53-5.94-6.04-7.36-10.56-1.01-3.13-1.52-8.81-1.52-17.05v-21.45Z"/>
          <path class="cls-1" d="m335.4,59.18v-18.99h-12.93v18.99h-6.63v11.13h6.63v34.27h12.93v-34.27h7.67v-11.13h-7.67Z"/>
          <path class="cls-1" d="m349.95,59.2h13.07v24.81c0,4.83.33,8.18,1,10.06.66,1.88,1.73,3.34,3.2,4.38,1.47,1.04,3.28,1.56,5.43,1.56s3.98-.51,5.48-1.54c1.5-1.03,2.62-2.53,3.35-4.52.54-1.48.81-4.66.81-9.52v-25.24h12.93v21.83c0,9-.71,15.15-2.13,18.47-1.74,4.04-4.29,7.14-7.67,9.3-3.38,2.16-7.67,3.24-12.88,3.24-5.65,0-10.22-1.26-13.71-3.79-3.49-2.53-5.94-6.04-7.36-10.56-1.01-3.13-1.52-8.81-1.52-17.05v-21.45Z"/>
          <path class="cls-1" d="m427.54,57.85c-2.36,0-4.54.66-6.53,1.99-1.99,1.32-3.58,3.26-4.78,5.82v-6.48h-11.08v45.39h12.83v-14.71l-.04-2.51c0-7.19.69-12.03,2.06-14.49,1.38-2.46,3.06-3.7,5.05-3.7.98,0,2.22.38,3.74,1.14l4.02-11.13c-1.83-.88-3.58-1.32-5.26-1.32Z"/>
          <path class="cls-1" d="m490.82,89.37h-41.53c.6,3.66,2.2,6.57,4.81,8.74,2.6,2.16,5.93,3.24,9.97,3.24,4.83,0,8.98-1.69,12.45-5.07l10.89,5.11c-2.72,3.85-5.97,6.7-9.76,8.55-3.79,1.85-8.29,2.77-13.49,2.77-8.08,0-14.66-2.55-19.74-7.65-5.08-5.1-7.62-11.48-7.62-19.15s2.53-14.39,7.6-19.58c5.07-5.19,11.42-7.79,19.06-7.79,8.11,0,14.71,2.6,19.79,7.79,5.08,5.19,7.62,12.05,7.62,20.57l-.05,2.46Zm-12.93-10.18c-.85-2.87-2.54-5.21-5.05-7.01-2.51-1.8-5.43-2.7-8.75-2.7-3.6,0-6.77,1.01-9.49,3.03-1.71,1.26-3.29,3.49-4.74,6.68h28.03Z"/>
          <path class="cls-1" d="m336.32,117.9c0,4.17-3.39,7.55-7.56,7.55s-7.52-3.34-7.55-7.48c-27.4.21-54.81.41-82.21.6-1.32,5.48-6.26,9.54-12.13,9.54-6.9,0-12.48-5.58-12.48-12.48,0-3.6,1.53-6.86,3.97-9.13,2.23-2.08,5.22-3.35,8.51-3.35,1.64,0,3.21.32,4.65.89,3.72,1.5,6.56,4.75,7.5,8.72,27.44,1.22,54.9,2.44,82.33,3.66.7-3.46,3.75-6.07,7.41-6.07,4.17,0,7.56,3.39,7.56,7.56Z"/>
        </g>
        <g>
          <path class="cls-1" d="m554.62,60.78l-4.33,3.32c-2.39-3.11-5.25-5.47-8.6-7.07-3.35-1.6-7.02-2.41-11.02-2.41-4.38,0-8.43,1.05-12.16,3.15-3.73,2.1-6.62,4.92-8.67,8.47-2.05,3.54-3.08,7.53-3.08,11.96,0,6.69,2.29,12.27,6.88,16.75,4.59,4.48,10.38,6.71,17.37,6.71,7.69,0,14.12-3.01,19.29-9.03l4.33,3.28c-2.74,3.48-6.15,6.17-10.24,8.08-4.09,1.9-8.66,2.85-13.71,2.85-9.6,0-17.18-3.2-22.72-9.59-4.65-5.4-6.98-11.91-6.98-19.55,0-8.03,2.82-14.79,8.45-20.28s12.69-8.23,21.17-8.23c5.12,0,9.75,1.01,13.88,3.04,4.13,2.03,7.51,4.87,10.15,8.53Z"/>
          <path class="cls-1" d="m578.48,63.84c6.25,0,11.44,2.26,15.55,6.79,3.74,4.13,5.61,9.02,5.61,14.66s-1.97,10.63-5.92,14.87c-3.95,4.24-9.03,6.36-15.23,6.36s-11.32-2.12-15.27-6.36c-3.95-4.24-5.92-9.2-5.92-14.87s1.87-10.5,5.61-14.63c4.11-4.55,9.31-6.83,15.58-6.83Zm-.02,5.11c-4.34,0-8.08,1.6-11.2,4.81-3.12,3.21-4.68,7.09-4.68,11.64,0,2.94.71,5.67,2.13,8.21,1.42,2.54,3.34,4.5,5.77,5.88,2.42,1.38,5.08,2.07,7.97,2.07s5.55-.69,7.97-2.07c2.42-1.38,4.34-3.34,5.77-5.88,1.42-2.54,2.13-5.27,2.13-8.21,0-4.55-1.57-8.43-4.7-11.64s-6.86-4.81-11.18-4.81Z"/>
          <path class="cls-1" d="m603.79,64.89h5.22v7.28c2.09-2.79,4.4-4.87,6.94-6.25,2.54-1.38,5.3-2.07,8.28-2.07s5.73.77,8.08,2.31c2.35,1.54,4.09,3.62,5.21,6.23,1.12,2.61,1.68,6.68,1.68,12.2v20.89h-5.22v-19.36c0-4.68-.19-7.8-.58-9.36-.6-2.69-1.77-4.71-3.48-6.06-1.72-1.36-3.96-2.03-6.72-2.03-3.16,0-5.99,1.04-8.49,3.13s-4.15,4.68-4.94,7.76c-.5,2.01-.75,5.7-.75,11.04v14.89h-5.22v-40.59Z"/>
          <path class="cls-1" d="m644.89,64.89h5.22v7.28c2.09-2.79,4.4-4.87,6.94-6.25,2.54-1.38,5.3-2.07,8.28-2.07s5.73.77,8.08,2.31c2.35,1.54,4.09,3.62,5.21,6.23,1.12,2.61,1.68,6.68,1.68,12.2v20.89h-5.22v-19.36c0-4.68-.19-7.8-.58-9.36-.6-2.69-1.77-4.71-3.48-6.06-1.72-1.36-3.96-2.03-6.72-2.03-3.16,0-5.99,1.04-8.49,3.13s-4.15,4.68-4.94,7.76c-.5,2.01-.75,5.7-.75,11.04v14.89h-5.22v-40.59Z"/>
          <path class="cls-1" d="m720.16,92.01l4.4,2.31c-1.44,2.83-3.11,5.12-5,6.86-1.89,1.74-4.02,3.07-6.39,3.97-2.37.91-5.04,1.36-8.03,1.36-6.62,0-11.8-2.17-15.54-6.51-3.73-4.34-5.6-9.25-5.6-14.72,0-5.15,1.58-9.74,4.74-13.77,4.01-5.12,9.37-7.69,16.09-7.69s12.45,2.62,16.58,7.87c2.94,3.71,4.43,8.33,4.48,13.88h-36.53c.1,4.71,1.61,8.58,4.52,11.59,2.91,3.02,6.51,4.52,10.79,4.52,2.07,0,4.08-.36,6.03-1.08,1.95-.72,3.62-1.67,4.99-2.86s2.85-3.11,4.45-5.76Zm0-10.93c-.7-2.79-1.71-5.01-3.04-6.68-1.33-1.67-3.09-3.01-5.29-4.03-2.19-1.02-4.5-1.53-6.91-1.53-3.99,0-7.41,1.28-10.27,3.84-2.09,1.87-3.67,4.66-4.74,8.39h30.26Z"/>
          <path class="cls-1" d="m769.54,73.32l-4.14,2.57c-3.58-4.75-8.46-7.13-14.65-7.13-4.94,0-9.05,1.59-12.32,4.77-3.27,3.18-4.9,7.04-4.9,11.59,0,2.96.75,5.74,2.25,8.35s3.57,4.63,6.19,6.07,5.56,2.16,8.81,2.16c5.96,0,10.83-2.38,14.61-7.12l4.14,2.72c-1.94,2.92-4.55,5.19-7.82,6.8-3.27,1.61-7,2.42-11.17,2.42-6.42,0-11.74-2.04-15.97-6.12-4.23-4.08-6.34-9.04-6.34-14.89,0-3.93.99-7.58,2.97-10.95,1.98-3.37,4.69-6,8.15-7.89s7.33-2.84,11.6-2.84c2.69,0,5.28.41,7.78,1.23,2.5.82,4.62,1.89,6.36,3.21,1.74,1.32,3.22,3,4.44,5.04Z"/>
          <path class="cls-1" d="m778.63,49.81h5.22v15.07h8.28v4.51h-8.28v36.08h-5.22v-36.08h-7.13v-4.51h7.13v-15.07Z"/>
        </g>
      </g>
      <g>
        <path class="cls-1" d="m128.25,1.42c-1.39.44-2.78.91-4.15,1.42-6.81,1.81-13.38,4.49-19.72,8.04-10.44,5.86-18.94,13.24-25.47,22.14h-46.72v30.93h33.42c-1,5.31-1.5,10.87-1.5,16.67,0,5.01.34,9.84,1.03,14.46h-32.95v62.41c-2.93-.77-7.08-1.46-11.98-1.01-10.34.95-17.41,6.37-20.22,8.8V1.42h128.25Z"/>
        <path class="cls-1" d="m178.55,128.84c3.62,8.84,7.24,17.67,10.85,26.5-8.39,3.22-20.29,6.47-34.66,6.44-7.55-.02-25-.33-42.82-10.54-5.77-3.3-11.09-7.38-15.97-12.24-12.03-11.98-19.32-26.61-21.86-43.91-.69-4.63-1.03-9.46-1.03-14.46,0-5.8.5-11.36,1.5-16.67,1.62-8.75,4.6-16.84,8.93-24.27,1.34-2.3,2.79-4.53,4.36-6.66,6.53-8.9,15.03-16.28,25.47-22.14,6.34-3.55,12.9-6.23,19.72-8.04,7.11-1.91,14.48-2.85,22.11-2.85,2.89,0,8.31.03,15.12,1.31,5.74,1.08,14.61,3.47,24.5,9.3-7.27,6.89-14.55,13.78-21.82,20.67-1.21-.39-2.83-.89-4.79-1.35-1.82-.43-7.04-1.55-13.48-1.55-14.72,0-27.11,5.04-37.2,15.1-10.07,10.06-15.12,22.46-15.12,37.21,0,10.27,2.23,19.39,6.7,27.36,4.46,7.97,10.78,14.22,18.94,18.76,2.04,1.13,12.43,6.78,27.2,6.81,10.15.03,18.25-2.6,23.33-4.77Z"/>
      </g>
    </g>
  </g>
</svg>