<?xml version="1.0" encoding="UTF-8"?>
<svg id="Layer_2" data-name="Layer 2" xmlns="http://www.w3.org/2000/svg" viewBox="0 0 491.3 174.63">
  <defs>
    <style>
      .cls-1 {
        fill: #23a88b;
      }
    </style>
  </defs>
  <g id="Layer_1-2" data-name="Layer 1">
    <g>
      <g id="FUTURE_CONNECT_LOGO" data-name="FUTURE CONNECT LOGO">
        <g>
          <path class="cls-1" d="m280.62,111.31l-3.84,2.95c-2.12-2.76-4.66-4.85-7.63-6.27-2.97-1.42-6.23-2.13-9.78-2.13-3.88,0-7.48.93-10.79,2.8-3.31,1.86-5.87,4.37-7.69,7.51-1.82,3.14-2.73,6.68-2.73,10.61,0,5.93,2.04,10.89,6.11,14.86,4.07,3.97,9.2,5.96,15.4,5.96,6.82,0,12.52-2.67,17.11-8.01l3.84,2.91c-2.43,3.09-5.45,5.48-9.08,7.16-3.63,1.69-7.68,2.53-12.16,2.53-8.52,0-15.23-2.84-20.15-8.51-4.13-4.79-6.19-10.57-6.19-17.34,0-7.13,2.5-13.12,7.5-17.99,5-4.86,11.26-7.3,18.78-7.3,4.54,0,8.65.9,12.31,2.7,3.66,1.8,6.66,4.32,9,7.56Z"/>
          <path class="cls-1" d="m301.79,114.02c5.55,0,10.14,2.01,13.79,6.02,3.31,3.66,4.97,8,4.97,13.01s-1.75,9.43-5.25,13.19c-3.5,3.76-8.01,5.64-13.51,5.64s-10.04-1.88-13.54-5.64c-3.5-3.76-5.25-8.16-5.25-13.19s1.66-9.31,4.97-12.97c3.65-4.04,8.25-6.06,13.82-6.06Zm-.02,4.53c-3.85,0-7.16,1.42-9.93,4.27-2.77,2.85-4.15,6.29-4.15,10.32,0,2.6.63,5.03,1.89,7.28s2.97,3.99,5.12,5.21c2.15,1.22,4.5,1.84,7.07,1.84s4.93-.61,7.07-1.84c2.15-1.22,3.85-2.96,5.11-5.21s1.89-4.68,1.89-7.28c0-4.04-1.39-7.48-4.17-10.32-2.78-2.85-6.08-4.27-9.91-4.27Z"/>
          <path class="cls-1" d="m324.24,114.95h4.63v6.45c1.85-2.47,3.91-4.32,6.16-5.54,2.25-1.22,4.7-1.84,7.35-1.84s5.08.69,7.17,2.05c2.08,1.37,3.62,3.21,4.62,5.53.99,2.32,1.49,5.92,1.49,10.82v18.53h-4.63v-17.18c0-4.15-.17-6.92-.52-8.31-.54-2.38-1.57-4.18-3.09-5.38-1.52-1.2-3.51-1.8-5.96-1.8-2.8,0-5.31.93-7.53,2.78-2.22,1.85-3.68,4.15-4.38,6.88-.44,1.79-.66,5.05-.66,9.8v13.2h-4.63v-36Z"/>
          <path class="cls-1" d="m360.69,114.95h4.63v6.45c1.85-2.47,3.91-4.32,6.16-5.54,2.25-1.22,4.7-1.84,7.35-1.84s5.08.69,7.17,2.05c2.08,1.37,3.62,3.21,4.62,5.53.99,2.32,1.49,5.92,1.49,10.82v18.53h-4.63v-17.18c0-4.15-.17-6.92-.52-8.31-.54-2.38-1.57-4.18-3.09-5.38-1.52-1.2-3.51-1.8-5.96-1.8-2.8,0-5.31.93-7.53,2.78-2.22,1.85-3.68,4.15-4.38,6.88-.44,1.79-.66,5.05-.66,9.8v13.2h-4.63v-36Z"/>
          <path class="cls-1" d="m427.46,139.01l3.91,2.05c-1.28,2.52-2.76,4.55-4.44,6.09-1.68,1.54-3.57,2.72-5.66,3.52-2.1.81-4.47,1.21-7.12,1.21-5.87,0-10.47-1.92-13.78-5.77-3.31-3.85-4.97-8.2-4.97-13.06,0-4.57,1.4-8.64,4.21-12.21,3.56-4.54,8.31-6.82,14.28-6.82s11.04,2.33,14.71,6.98c2.61,3.29,3.93,7.39,3.98,12.31h-32.4c.09,4.18,1.42,7.61,4.01,10.28,2.58,2.67,5.78,4.01,9.58,4.01,1.83,0,3.62-.32,5.35-.96s3.21-1.48,4.42-2.54c1.22-1.05,2.53-2.76,3.94-5.11Zm0-9.7c-.62-2.47-1.52-4.44-2.7-5.92-1.18-1.48-2.75-2.67-4.69-3.57s-3.99-1.36-6.13-1.36c-3.53,0-6.57,1.14-9.11,3.41-1.86,1.65-3.26,4.14-4.21,7.45h26.84Z"/>
          <path class="cls-1" d="m471.26,122.43l-3.67,2.28c-3.17-4.21-7.5-6.32-12.99-6.32-4.38,0-8.03,1.41-10.92,4.23-2.9,2.82-4.35,6.25-4.35,10.28,0,2.62.67,5.09,2,7.4,1.33,2.31,3.16,4.11,5.49,5.39,2.33,1.28,4.93,1.92,7.82,1.92,5.29,0,9.61-2.11,12.96-6.32l3.67,2.42c-1.72,2.59-4.03,4.6-6.93,6.03-2.9,1.43-6.2,2.14-9.91,2.14-5.69,0-10.41-1.81-14.16-5.43-3.75-3.62-5.63-8.02-5.63-13.2,0-3.49.88-6.72,2.63-9.71,1.75-2.99,4.16-5.32,7.23-7,3.07-1.68,6.5-2.52,10.29-2.52,2.38,0,4.68.36,6.9,1.09s4.1,1.68,5.64,2.85c1.54,1.17,2.86,2.66,3.94,4.47Z"/>
          <path class="cls-1" d="m479.32,101.58h4.63v13.37h7.35v4h-7.35v32h-4.63v-32h-6.32v-4h6.32v-13.37Z"/>
        </g>
        <g>
          <path class="cls-1" d="m266.65,34.65v-11.45h-30.6v54.76c1.98-1.84,4.63-2.97,7.54-2.97,1.45,0,2.84.28,4.12.79v-18.66h18.95v-11.27h-18.95v-11.2h18.95Z"/>
          <path class="cls-1" d="m275.81,39.28h11.57v21.97c0,4.28.29,7.25.88,8.91.59,1.66,1.53,2.96,2.84,3.88,1.3.92,2.91,1.38,4.81,1.38s3.52-.45,4.85-1.36c1.33-.91,2.32-2.24,2.96-4,.48-1.31.71-4.12.71-8.43v-22.35h11.45v19.33c0,7.97-.63,13.42-1.89,16.35-1.54,3.58-3.8,6.32-6.79,8.24-2.99,1.91-6.79,2.87-11.4,2.87-5,0-9.05-1.12-12.14-3.35-3.09-2.24-5.26-5.35-6.52-9.35-.89-2.77-1.34-7.8-1.34-15.09v-18.99Z"/>
          <path class="cls-1" d="m340.19,39.26v-16.81h-11.45v16.81h-5.88v9.85h5.88v30.34h11.45v-30.34h6.79v-9.85h-6.79Z"/>
          <path class="cls-1" d="m353.08,39.28h11.57v21.97c0,4.28.29,7.25.88,8.91.59,1.66,1.53,2.96,2.84,3.88,1.3.92,2.91,1.38,4.81,1.38s3.52-.45,4.85-1.36c1.33-.91,2.32-2.24,2.96-4,.48-1.31.71-4.12.71-8.43v-22.35h11.45v19.33c0,7.97-.63,13.42-1.89,16.35-1.54,3.58-3.8,6.32-6.79,8.24-2.99,1.91-6.79,2.87-11.4,2.87-5,0-9.05-1.12-12.14-3.35-3.09-2.24-5.26-5.35-6.52-9.35-.89-2.77-1.34-7.8-1.34-15.09v-18.99Z"/>
          <path class="cls-1" d="m421.78,38.09c-2.09,0-4.02.59-5.78,1.76-1.77,1.17-3.17,2.89-4.23,5.16v-5.74h-9.81v40.2h11.36v-13.02l-.04-2.23c0-6.37.61-10.65,1.82-12.83,1.22-2.18,2.71-3.27,4.47-3.27.87,0,1.97.34,3.31,1.01l3.56-9.85c-1.62-.78-3.17-1.17-4.66-1.17Z"/>
          <path class="cls-1" d="m477.82,65.99h-36.77c.53,3.24,1.95,5.82,4.26,7.74,2.31,1.91,5.25,2.87,8.83,2.87,4.28,0,7.95-1.49,11.03-4.49l9.64,4.53c-2.4,3.41-5.28,5.93-8.64,7.57-3.35,1.63-7.34,2.45-11.95,2.45-7.16,0-12.98-2.26-17.48-6.77-4.5-4.51-6.75-10.17-6.75-16.96s2.24-12.74,6.73-17.34c4.49-4.6,10.11-6.9,16.88-6.9,7.18,0,13.02,2.3,17.53,6.9,4.5,4.6,6.75,10.67,6.75,18.22l-.04,2.18Zm-11.45-9.01c-.76-2.54-2.25-4.61-4.47-6.21-2.23-1.59-4.81-2.39-7.75-2.39-3.19,0-5.99.89-8.4,2.68-1.51,1.12-2.91,3.09-4.2,5.91h24.82Z"/>
          <path class="cls-1" d="m341.01,91.26c0,3.7-3,6.69-6.7,6.69s-6.66-2.96-6.69-6.62c-24.27.19-48.53.36-72.8.53-1.17,4.85-5.54,8.45-10.74,8.45-6.11,0-11.05-4.95-11.05-11.05,0-3.19,1.35-6.07,3.52-8.09,1.98-1.84,4.63-2.97,7.54-2.97,1.45,0,2.84.28,4.12.79,3.3,1.33,5.81,4.2,6.64,7.72,24.3,1.08,48.61,2.16,72.91,3.24.62-3.06,3.32-5.38,6.56-5.38,3.7,0,6.7,3,6.7,6.7Z"/>
        </g>
      </g>
      <g>
        <path class="cls-1" d="m135.49,1.51c-1.47.46-2.93.96-4.38,1.51-7.2,1.91-14.13,4.75-20.83,8.49-11.03,6.19-20.01,13.99-26.91,23.39h-49.35v32.67h35.31c-1.05,5.61-1.58,11.49-1.58,17.61,0,5.29.35,10.39,1.08,15.28h-34.81v65.94c-3.1-.81-7.48-1.54-12.65-1.07-10.93,1-18.39,6.73-21.36,9.3V1.51h135.49Z"/>
        <path class="cls-1" d="m188.63,136.12c3.83,9.34,7.65,18.67,11.47,27.99-8.87,3.4-21.44,6.84-36.61,6.81-7.98-.02-26.41-.35-45.24-11.13-6.1-3.49-11.72-7.79-16.87-12.93-12.71-12.65-20.41-28.11-23.1-46.39-.73-4.89-1.08-9.99-1.08-15.28,0-6.13.53-12,1.58-17.61,1.72-9.24,4.86-17.79,9.43-25.64,1.42-2.44,2.95-4.78,4.61-7.04,6.9-9.4,15.88-17.2,26.91-23.39,6.7-3.75,13.63-6.59,20.83-8.49,7.52-2.01,15.3-3.01,23.36-3.01,3.06,0,8.78.03,15.97,1.38,6.06,1.14,15.44,3.66,25.88,9.83-7.68,7.28-15.37,14.56-23.05,21.84-1.28-.41-2.99-.94-5.06-1.43-1.93-.45-7.44-1.64-14.24-1.64-15.55,0-28.65,5.32-39.3,15.95-10.64,10.63-15.97,23.73-15.97,39.31,0,10.85,2.36,20.49,7.08,28.9,4.72,8.42,11.39,15.02,20.01,19.82,2.16,1.2,13.13,7.16,28.73,7.2,10.72.03,19.28-2.75,24.65-5.04Z"/>
      </g>
    </g>
  </g>
</svg>