<svg id="Layer_1" data-name="Layer 1" xmlns="http://www.w3.org/2000/svg" viewBox="0 0 1500 1000"><defs><style>.cls-1{fill:#20603d;}.cls-2{fill:#fad201;}.cls-3{fill:#00a1de;}.cls-4,.cls-5{fill:#e5be01;}.cls-5{stroke:#00a1de;stroke-width:3.4px;}</style></defs><title>Rwanda</title><rect class="cls-1" width="1500" height="1000"/><rect class="cls-2" width="1500" height="750"/><rect class="cls-3" width="1500" height="500"/><g id="h"><path id="q" class="cls-4" d="M1392.5,261.25l-111.68,6.53L1387,303l-109.57-22.6,93.46,61.5-100-50.19,74.35,83.58-83.58-74.35,50.18,100-61.49-93.46L1273,417l-35.2-106.19-6.53,111.68-1.39-162.64Z"/><path id="q-2" data-name="q" class="cls-4" d="M1392.5,261.25l-111.68-6.53L1387,219.52l-109.57,22.6,93.46-61.49-100,50.18,74.35-83.58-83.58,74.35,50.18-100-61.49,93.46L1273,105.49l-35.2,106.19L1231.25,100l-1.39,162.64Z"/></g><g id="h-2" data-name="h"><path id="q-3" data-name="q" class="cls-4" d="M1070,261.25l111.68,6.53L1075.49,303l109.57-22.6-93.46,61.5,100-50.19-74.35,83.58,83.58-74.35-50.18,100,61.49-93.46L1189.52,417l35.2-106.19,6.53,111.68,1.39-162.64Z"/><path id="q-4" data-name="q" class="cls-4" d="M1070,261.25l111.68-6.53-106.19-35.2,109.57,22.6-93.46-61.49,100,50.18-74.35-83.58,83.58,74.35-50.18-100,61.49,93.46-22.6-109.57,35.2,106.19L1231.25,100l1.39,162.64Z"/></g><circle class="cls-5" cx="1231.25" cy="261.25" r="47.64"/></svg>